<mxfile host="Electron" modified="2024-06-12T08:59:08.712Z" agent="Mozilla/5.0 (Windows NT 10.0; Win64; x64) AppleWebKit/537.36 (KHTML, like Gecko) draw.io/24.4.0 Chrome/120.0.6099.109 Electron/28.1.0 Safari/537.36" etag="FyB8nAoebyT7lISJFhyU" version="24.4.0" type="device">
  <diagram name="Page-1" id="eaqd5AabxO_EqEaFYJoh">
    <mxGraphModel dx="978" dy="571" grid="1" gridSize="10" guides="1" tooltips="1" connect="1" arrows="1" fold="1" page="1" pageScale="1" pageWidth="690" pageHeight="980" math="0" shadow="0">
      <root>
        <mxCell id="0" />
        <mxCell id="1" parent="0" />
        <mxCell id="L-s-SFvwU7tH3ecKDvzv-1" value="Hormonal clusters of testicular cancers" style="text;html=1;align=center;verticalAlign=middle;whiteSpace=wrap;rounded=0;fontSize=10;fontStyle=1" vertex="1" parent="1">
          <mxGeometry x="290" y="10" width="210" height="30" as="geometry" />
        </mxCell>
        <mxCell id="L-s-SFvwU7tH3ecKDvzv-2" value="#1" style="rounded=0;whiteSpace=wrap;html=1;fillColor=#f5f5f5;fontColor=#333333;strokeColor=#666666;fontStyle=1" vertex="1" parent="1">
          <mxGeometry x="100" y="50" width="120" height="20" as="geometry" />
        </mxCell>
        <mxCell id="L-s-SFvwU7tH3ecKDvzv-3" value="#2" style="rounded=0;whiteSpace=wrap;html=1;fillColor=#d5e8d4;strokeColor=#82b366;fontStyle=1" vertex="1" parent="1">
          <mxGeometry x="250" y="50" width="120" height="20" as="geometry" />
        </mxCell>
        <mxCell id="L-s-SFvwU7tH3ecKDvzv-4" value="#3" style="rounded=0;whiteSpace=wrap;html=1;fillColor=#f8cecc;strokeColor=#b85450;fontStyle=1" vertex="1" parent="1">
          <mxGeometry x="400" y="50" width="120" height="20" as="geometry" />
        </mxCell>
        <mxCell id="L-s-SFvwU7tH3ecKDvzv-5" value="#4" style="rounded=0;whiteSpace=wrap;html=1;fillColor=#dae8fc;strokeColor=#6c8ebf;fontStyle=1" vertex="1" parent="1">
          <mxGeometry x="550" y="50" width="120" height="20" as="geometry" />
        </mxCell>
        <mxCell id="L-s-SFvwU7tH3ecKDvzv-6" style="edgeStyle=orthogonalEdgeStyle;rounded=0;orthogonalLoop=1;jettySize=auto;html=1;exitX=0.5;exitY=1;exitDx=0;exitDy=0;" edge="1" parent="1" source="L-s-SFvwU7tH3ecKDvzv-3" target="L-s-SFvwU7tH3ecKDvzv-3">
          <mxGeometry relative="1" as="geometry" />
        </mxCell>
        <mxCell id="L-s-SFvwU7tH3ecKDvzv-7" value="Sex hormone-related gene expression" style="text;html=1;align=left;verticalAlign=middle;whiteSpace=wrap;rounded=0;fontSize=8;fontStyle=1" vertex="1" parent="1">
          <mxGeometry x="10" y="103" width="90" height="30" as="geometry" />
        </mxCell>
        <mxCell id="L-s-SFvwU7tH3ecKDvzv-9" value="Testosterone - DHT conversion (&lt;em&gt;SRD5A3&lt;/em&gt;)&lt;div&gt;&lt;br&gt;&lt;/div&gt;&lt;div&gt;Receptors: &lt;i&gt;ESR2&lt;/i&gt;, &lt;i&gt;AR&lt;/i&gt;&lt;/div&gt;&lt;div&gt;&lt;i&gt;&lt;br&gt;&lt;/i&gt;&lt;/div&gt;&lt;div&gt;Expression of AR responsive genes&lt;/div&gt;" style="rounded=0;whiteSpace=wrap;html=1;fontSize=8;align=left;spacingLeft=4;fillColor=#d5e8d4;strokeColor=#82b366;opacity=50;" vertex="1" parent="1">
          <mxGeometry x="250" y="80" width="140" height="110" as="geometry" />
        </mxCell>
        <mxCell id="L-s-SFvwU7tH3ecKDvzv-10" value="Gonadotropin (&lt;em&gt;CGA&lt;/em&gt;)&lt;br&gt;&lt;br&gt;Estrogen/estradiol synthesis (&lt;em&gt;HSD17B1&lt;/em&gt;, &lt;em&gt;HSD18B12&lt;/em&gt;, &lt;em&gt;CYP19A1&lt;/em&gt;)&lt;br&gt;&lt;br&gt;Sex hormone transport (&lt;em&gt;SHBG&lt;/em&gt;)&lt;div&gt;&lt;br&gt;&lt;/div&gt;&lt;div&gt;Receptors: &lt;i&gt;FSHR&lt;/i&gt;&lt;/div&gt;&lt;div&gt;&lt;i&gt;&lt;br&gt;&lt;/i&gt;&lt;/div&gt;&lt;div&gt;Expression of ER-responsive genes&lt;/div&gt;" style="rounded=0;whiteSpace=wrap;html=1;fontSize=8;align=left;spacingLeft=4;fillColor=#f8cecc;strokeColor=#b85450;opacity=50;" vertex="1" parent="1">
          <mxGeometry x="400" y="80" width="140" height="110" as="geometry" />
        </mxCell>
        <mxCell id="L-s-SFvwU7tH3ecKDvzv-11" value="Steroid synthesis (&lt;em&gt;STAR&lt;/em&gt;, &lt;em&gt;POMC&lt;/em&gt;, &lt;em&gt;HSD3B2&lt;/em&gt;, &lt;em&gt;CYP11A1&lt;/em&gt;, &lt;em&gt;CYP17A1&lt;/em&gt;)&lt;br&gt;&lt;br&gt;Testosterone synthesis (&lt;em&gt;HSD17B3&lt;/em&gt;)&lt;div&gt;&lt;br&gt;&lt;/div&gt;&lt;div&gt;Receptors:&amp;nbsp;&lt;i&gt;LHCGR&lt;/i&gt;, &lt;i&gt;ESR2&lt;/i&gt;, &lt;i&gt;AR&lt;/i&gt;&lt;/div&gt;" style="rounded=0;whiteSpace=wrap;html=1;fontSize=8;align=left;spacingLeft=4;fillColor=#dae8fc;strokeColor=#6c8ebf;opacity=50;" vertex="1" parent="1">
          <mxGeometry x="550" y="80" width="140" height="110" as="geometry" />
        </mxCell>
        <mxCell id="L-s-SFvwU7tH3ecKDvzv-13" value="Pituitary hormone-related genes (&lt;em&gt;GNRH1&lt;/em&gt;, &lt;em&gt;PRL&lt;/em&gt;)&lt;br&gt;&lt;br&gt;Testosterone - DHT conversion (&lt;em&gt;SRD5A1&lt;/em&gt;)&lt;div&gt;&lt;br&gt;&lt;/div&gt;&lt;div&gt;Receptors: &lt;i&gt;FSHR&lt;/i&gt;, &lt;i&gt;AR&lt;/i&gt;&lt;/div&gt;&lt;div&gt;&lt;i&gt;&lt;br&gt;&lt;/i&gt;&lt;/div&gt;&lt;div&gt;Expression of ER-responsive genes&lt;/div&gt;" style="rounded=0;whiteSpace=wrap;html=1;fontSize=8;align=left;spacingLeft=4;fillColor=#f5f5f5;fontColor=#333333;strokeColor=#666666;opacity=50;" vertex="1" parent="1">
          <mxGeometry x="100" y="80" width="140" height="110" as="geometry" />
        </mxCell>
        <mxCell id="L-s-SFvwU7tH3ecKDvzv-16" value="Histology" style="text;html=1;align=left;verticalAlign=middle;whiteSpace=wrap;rounded=0;fontSize=8;fontStyle=1" vertex="1" parent="1">
          <mxGeometry x="10" y="200" width="90" height="30" as="geometry" />
        </mxCell>
        <mxCell id="L-s-SFvwU7tH3ecKDvzv-17" value="NSGCT, teratoma, mixed" style="rounded=0;whiteSpace=wrap;html=1;fontSize=8;align=left;spacingLeft=4;fillColor=#f5f5f5;fontColor=#333333;strokeColor=#666666;opacity=50;" vertex="1" parent="1">
          <mxGeometry x="100" y="200" width="140" height="30" as="geometry" />
        </mxCell>
        <mxCell id="L-s-SFvwU7tH3ecKDvzv-18" value="Seminoma" style="rounded=0;whiteSpace=wrap;html=1;fontSize=8;align=left;spacingLeft=4;fillColor=#d5e8d4;strokeColor=#82b366;opacity=50;" vertex="1" parent="1">
          <mxGeometry x="250" y="200" width="140" height="30" as="geometry" />
        </mxCell>
        <mxCell id="L-s-SFvwU7tH3ecKDvzv-19" value="NSGCT, embryonal carcinoma, mixed, yolk sac" style="rounded=0;whiteSpace=wrap;html=1;fontSize=8;align=left;spacingLeft=4;fillColor=#f8cecc;strokeColor=#b85450;opacity=50;" vertex="1" parent="1">
          <mxGeometry x="400" y="200" width="140" height="30" as="geometry" />
        </mxCell>
        <mxCell id="L-s-SFvwU7tH3ecKDvzv-20" value="NSGCT, embronal carcinoma, mixed, seminoma, yolk sac" style="rounded=0;whiteSpace=wrap;html=1;fontSize=8;align=left;spacingLeft=4;fillColor=#dae8fc;strokeColor=#6c8ebf;opacity=50;" vertex="1" parent="1">
          <mxGeometry x="550" y="200" width="140" height="30" as="geometry" />
        </mxCell>
        <mxCell id="L-s-SFvwU7tH3ecKDvzv-21" value="Risk profile and prognosis" style="text;html=1;align=left;verticalAlign=middle;whiteSpace=wrap;rounded=0;fontSize=8;fontStyle=1" vertex="1" parent="1">
          <mxGeometry x="10" y="255" width="90" height="30" as="geometry" />
        </mxCell>
        <mxCell id="L-s-SFvwU7tH3ecKDvzv-22" value="Younger patients&lt;br&gt;&lt;br&gt;Serum markers: S1/S2&lt;div&gt;&lt;br&gt;&lt;/div&gt;&lt;div&gt;Cancer marker expression: &lt;i&gt;AFP&lt;/i&gt;&lt;br&gt;&lt;br&gt;Progression/relapse: intermediate - high risk&lt;/div&gt;" style="rounded=0;whiteSpace=wrap;html=1;fontSize=8;align=left;spacingLeft=4;fillColor=#f5f5f5;fontColor=#333333;strokeColor=#666666;opacity=50;" vertex="1" parent="1">
          <mxGeometry x="100" y="240" width="140" height="90" as="geometry" />
        </mxCell>
        <mxCell id="L-s-SFvwU7tH3ecKDvzv-23" value="Older patients&lt;br&gt;&lt;br&gt;Serum markers: mostly S0/S1&lt;div&gt;&lt;br&gt;&lt;/div&gt;&lt;div&gt;Cancer marker expression: &lt;i&gt;LDHC&lt;/i&gt;&lt;br&gt;&lt;br&gt;Progression/relapse: low risk&lt;/div&gt;" style="rounded=0;whiteSpace=wrap;html=1;fontSize=8;align=left;spacingLeft=4;fillColor=#d5e8d4;strokeColor=#82b366;opacity=50;" vertex="1" parent="1">
          <mxGeometry x="250" y="240" width="140" height="90" as="geometry" />
        </mxCell>
        <mxCell id="L-s-SFvwU7tH3ecKDvzv-24" value="Older patients&lt;br&gt;&lt;br&gt;Serum markers: mostly S2&lt;br&gt;&lt;br&gt;Cancer marker expression: &lt;i&gt;LDHA&lt;/i&gt;, &lt;i&gt;AFP&lt;/i&gt;, &lt;i&gt;CGA&lt;/i&gt;&lt;br&gt;&lt;br&gt;Progression/relapse: high risk" style="rounded=0;whiteSpace=wrap;html=1;fontSize=8;align=left;spacingLeft=4;fillColor=#f8cecc;strokeColor=#b85450;opacity=50;" vertex="1" parent="1">
          <mxGeometry x="400" y="240" width="140" height="90" as="geometry" />
        </mxCell>
        <mxCell id="L-s-SFvwU7tH3ecKDvzv-25" value="Younger patients&lt;br&gt;&lt;br&gt;Serum markers: mostly S0/S1&lt;div&gt;&lt;br&gt;&lt;/div&gt;&lt;div&gt;Cancer marker expression: &lt;i&gt;LDHA&lt;/i&gt;, &lt;i&gt;AFP&lt;/i&gt;&lt;br&gt;&lt;br&gt;Progression/relapse: intermediate risk&lt;/div&gt;" style="rounded=0;whiteSpace=wrap;html=1;fontSize=8;align=left;spacingLeft=4;fillColor=#dae8fc;strokeColor=#6c8ebf;opacity=50;" vertex="1" parent="1">
          <mxGeometry x="550" y="240" width="140" height="90" as="geometry" />
        </mxCell>
        <mxCell id="L-s-SFvwU7tH3ecKDvzv-26" value="Immunity, TME, ECM, and epithelial phenotype" style="text;html=1;align=left;verticalAlign=middle;whiteSpace=wrap;rounded=0;fontSize=8;fontStyle=1" vertex="1" parent="1">
          <mxGeometry x="10" y="360" width="90" height="30" as="geometry" />
        </mxCell>
        <mxCell id="L-s-SFvwU7tH3ecKDvzv-27" value="Fibroblast-rich, immune desert&lt;br&gt;&lt;br&gt;Collagens, glycoproteins, and proteoglycans &lt;br&gt;&lt;br&gt;Keratins, mesenchymal cell features" style="rounded=0;whiteSpace=wrap;html=1;fontSize=8;align=left;spacingLeft=4;fillColor=#f5f5f5;fontColor=#333333;strokeColor=#666666;opacity=50;" vertex="1" parent="1">
          <mxGeometry x="100" y="340" width="140" height="80" as="geometry" />
        </mxCell>
        <mxCell id="L-s-SFvwU7tH3ecKDvzv-29" value="T and B cell infiltration, immune checkpoint gene and cancer testis antigen expression&lt;br&gt;&lt;br&gt;ECM desert&lt;div&gt;&lt;br&gt;&lt;/div&gt;&lt;div&gt;Cell adhesion&lt;/div&gt;" style="rounded=0;whiteSpace=wrap;html=1;fontSize=8;align=left;spacingLeft=4;fillColor=#d5e8d4;strokeColor=#82b366;opacity=50;" vertex="1" parent="1">
          <mxGeometry x="250" y="340" width="140" height="80" as="geometry" />
        </mxCell>
        <mxCell id="L-s-SFvwU7tH3ecKDvzv-30" value="Fibroblasts, immune desert&lt;div&gt;&lt;br&gt;&lt;/div&gt;&lt;div&gt;ECM regulators, fibrinogens, proteases, and protease inhibitors&lt;/div&gt;&lt;div&gt;&lt;br&gt;&lt;/div&gt;&lt;div&gt;Mesenchymal cell features&lt;/div&gt;" style="rounded=0;whiteSpace=wrap;html=1;fontSize=8;align=left;spacingLeft=4;fillColor=#f8cecc;strokeColor=#b85450;opacity=50;" vertex="1" parent="1">
          <mxGeometry x="400" y="340" width="140" height="80" as="geometry" />
        </mxCell>
        <mxCell id="L-s-SFvwU7tH3ecKDvzv-31" value="Stroma- and immune desert&lt;div&gt;&lt;br&gt;&lt;/div&gt;&lt;div&gt;ECM secreted factors&lt;/div&gt;" style="rounded=0;whiteSpace=wrap;html=1;fontSize=8;align=left;spacingLeft=4;fillColor=#dae8fc;strokeColor=#6c8ebf;opacity=50;" vertex="1" parent="1">
          <mxGeometry x="550" y="340" width="140" height="80" as="geometry" />
        </mxCell>
        <mxCell id="L-s-SFvwU7tH3ecKDvzv-32" value="&lt;div&gt;FGFR, ERBB,&amp;nbsp;&lt;span style=&quot;background-color: initial;&quot;&gt;EPH, TGF/BMP/SMAD, and SRC-YAP signaling&lt;/span&gt;&lt;/div&gt;&lt;div&gt;&lt;span style=&quot;background-color: initial;&quot;&gt;&lt;br&gt;&lt;/span&gt;&lt;/div&gt;&lt;div&gt;&lt;span style=&quot;background-color: initial;&quot;&gt;Hypoxia, suppression of oxidative energy metabolism&lt;/span&gt;&lt;/div&gt;&lt;div&gt;&lt;span style=&quot;background-color: initial;&quot;&gt;&lt;br&gt;&lt;/span&gt;&lt;/div&gt;&lt;div&gt;&lt;span style=&quot;background-color: initial;&quot;&gt;Nucleotide interconversion, arachidonic acid metabolism&lt;/span&gt;&lt;/div&gt;" style="rounded=0;whiteSpace=wrap;html=1;fontSize=8;align=left;spacingLeft=4;fillColor=#f5f5f5;fontColor=#333333;strokeColor=#666666;opacity=50;" vertex="1" parent="1">
          <mxGeometry x="100" y="430" width="140" height="110" as="geometry" />
        </mxCell>
        <mxCell id="L-s-SFvwU7tH3ecKDvzv-33" value="Transcriptome, biology, signaling, metabolism" style="text;html=1;align=left;verticalAlign=middle;whiteSpace=wrap;rounded=0;fontSize=8;fontStyle=1" vertex="1" parent="1">
          <mxGeometry x="10" y="470" width="90" height="30" as="geometry" />
        </mxCell>
        <mxCell id="L-s-SFvwU7tH3ecKDvzv-34" value="&lt;div&gt;JAK/STAT and c-Kit signaling&lt;/div&gt;&lt;div&gt;&lt;br&gt;&lt;/div&gt;&lt;div&gt;&lt;span style=&quot;background-color: initial;&quot;&gt;Antigen processing, inflammation, apoptosis, DNA repair&lt;/span&gt;&lt;/div&gt;&lt;div&gt;&lt;span style=&quot;background-color: initial;&quot;&gt;&lt;br&gt;&lt;/span&gt;&lt;/div&gt;&lt;div&gt;&lt;span style=&quot;background-color: initial;&quot;&gt;Transport reactions&lt;/span&gt;&lt;/div&gt;" style="rounded=0;whiteSpace=wrap;html=1;fontSize=8;align=left;spacingLeft=4;fillColor=#d5e8d4;strokeColor=#82b366;opacity=50;" vertex="1" parent="1">
          <mxGeometry x="250" y="430" width="140" height="110" as="geometry" />
        </mxCell>
        <mxCell id="L-s-SFvwU7tH3ecKDvzv-35" value="&lt;div&gt;FGFR, ERBB, WNT, and SRC/YAP signaling&lt;/div&gt;&lt;div&gt;&lt;br&gt;&lt;/div&gt;&lt;div&gt;&lt;span style=&quot;background-color: initial;&quot;&gt;Hypoxia, AP1/JUN and ER-responsive transcriptome, supporession of oxidative energy metabolism&lt;/span&gt;&lt;/div&gt;&lt;div&gt;&lt;span style=&quot;background-color: initial;&quot;&gt;&lt;br&gt;&lt;/span&gt;&lt;/div&gt;&lt;div&gt;&lt;span style=&quot;background-color: initial;&quot;&gt;Lipid metabolism, female steroid hormone turnover&lt;/span&gt;&lt;/div&gt;" style="rounded=0;whiteSpace=wrap;html=1;fontSize=8;align=left;spacingLeft=4;fillColor=#f8cecc;strokeColor=#b85450;opacity=50;fontStyle=0" vertex="1" parent="1">
          <mxGeometry x="400" y="430" width="140" height="110" as="geometry" />
        </mxCell>
        <mxCell id="L-s-SFvwU7tH3ecKDvzv-36" value="&lt;div&gt;EGFR, FGFR, and ER signaling&lt;/div&gt;&lt;div&gt;&lt;br&gt;&lt;/div&gt;&lt;div&gt;CREB and&amp;nbsp;POU5F1 transcriptome, RNA turonver, nucleotide metabolism&lt;/div&gt;&lt;div&gt;&lt;span style=&quot;background-color: initial;&quot;&gt;&lt;br&gt;&lt;/span&gt;&lt;/div&gt;&lt;div&gt;&lt;span style=&quot;background-color: initial;&quot;&gt;Steroid and androgen production&lt;/span&gt;&lt;/div&gt;" style="rounded=0;whiteSpace=wrap;html=1;fontSize=8;align=left;spacingLeft=4;fillColor=#dae8fc;strokeColor=#6c8ebf;opacity=50;" vertex="1" parent="1">
          <mxGeometry x="550" y="430" width="140" height="110" as="geometry" />
        </mxCell>
        <mxCell id="L-s-SFvwU7tH3ecKDvzv-37" value="&lt;i&gt;GRID2 &lt;/i&gt;and &lt;i&gt;PDE4D &lt;/i&gt;gene deletions&lt;div&gt;&lt;br&gt;&lt;/div&gt;&lt;div&gt;20q11 amplification (&lt;i&gt;BCL2L1&lt;/i&gt;, &lt;i&gt;ID1&lt;/i&gt;)&lt;br&gt;&lt;/div&gt;&lt;div&gt;&lt;br&gt;&lt;/div&gt;&lt;div&gt;High deletion count, high MSI&lt;/div&gt;" style="rounded=0;whiteSpace=wrap;html=1;fontSize=8;align=left;spacingLeft=4;fillColor=#f5f5f5;fontColor=#333333;strokeColor=#666666;opacity=50;" vertex="1" parent="1">
          <mxGeometry x="100" y="550" width="140" height="70" as="geometry" />
        </mxCell>
        <mxCell id="L-s-SFvwU7tH3ecKDvzv-38" value="Genetics" style="text;html=1;align=left;verticalAlign=middle;whiteSpace=wrap;rounded=0;fontSize=8;fontStyle=1" vertex="1" parent="1">
          <mxGeometry x="10" y="570" width="90" height="30" as="geometry" />
        </mxCell>
        <mxCell id="L-s-SFvwU7tH3ecKDvzv-39" value="&lt;div&gt;KIT and KRAS mutations&lt;/div&gt;&lt;div&gt;&lt;br&gt;&lt;/div&gt;&lt;div&gt;Low deletion count, low MSI&lt;/div&gt;" style="rounded=0;whiteSpace=wrap;html=1;fontSize=8;align=left;spacingLeft=4;fillColor=#d5e8d4;strokeColor=#82b366;opacity=50;" vertex="1" parent="1">
          <mxGeometry x="250" y="550" width="140" height="70" as="geometry" />
        </mxCell>
        <mxCell id="L-s-SFvwU7tH3ecKDvzv-40" value="&lt;div&gt;GRID2 deletion&lt;/div&gt;&lt;div&gt;&lt;br&gt;&lt;/div&gt;&lt;div&gt;12q15 amplification (&lt;i&gt;MDM2,&amp;nbsp;&lt;/i&gt;&lt;span style=&quot;background-color: initial;&quot;&gt;&lt;i&gt;PTPRR,&amp;nbsp;&lt;/i&gt;&lt;/span&gt;&lt;span style=&quot;background-color: initial;&quot;&gt;&lt;i&gt;PTPRB&lt;/i&gt;&lt;/span&gt;&lt;span style=&quot;background-color: initial;&quot;&gt;)&lt;/span&gt;&lt;/div&gt;&lt;div&gt;&lt;span style=&quot;background-color: initial;&quot;&gt;&lt;br&gt;&lt;/span&gt;&lt;/div&gt;&lt;div&gt;&lt;span style=&quot;background-color: initial;&quot;&gt;High deletion count, high MSI&lt;/span&gt;&lt;/div&gt;" style="rounded=0;whiteSpace=wrap;html=1;fontSize=8;align=left;spacingLeft=4;fillColor=#f8cecc;strokeColor=#b85450;opacity=50;fontStyle=0" vertex="1" parent="1">
          <mxGeometry x="400" y="550" width="140" height="70" as="geometry" />
        </mxCell>
        <mxCell id="L-s-SFvwU7tH3ecKDvzv-41" value="&lt;div&gt;No strong genetic features&lt;/div&gt;" style="rounded=0;whiteSpace=wrap;html=1;fontSize=8;align=left;spacingLeft=4;fillColor=#dae8fc;strokeColor=#6c8ebf;opacity=50;" vertex="1" parent="1">
          <mxGeometry x="550" y="550" width="140" height="70" as="geometry" />
        </mxCell>
        <mxCell id="L-s-SFvwU7tH3ecKDvzv-42" value="&lt;div&gt;BCL2 family-, cytoskeleton/microtubule-, epigenetic-interfering, and&amp;nbsp; DNA-toxic drugs&lt;/div&gt;" style="rounded=0;whiteSpace=wrap;html=1;fontSize=8;align=left;spacingLeft=4;fillColor=#d5e8d4;strokeColor=#82b366;opacity=50;" vertex="1" parent="1">
          <mxGeometry x="250" y="630" width="140" height="50" as="geometry" />
        </mxCell>
        <mxCell id="L-s-SFvwU7tH3ecKDvzv-43" value="&lt;div&gt;TKI inhibitors&lt;/div&gt;" style="rounded=0;whiteSpace=wrap;html=1;fontSize=8;align=left;spacingLeft=4;fillColor=#d5e8d4;strokeColor=#82b366;opacity=50;" vertex="1" parent="1">
          <mxGeometry x="100" y="630" width="140" height="50" as="geometry" />
        </mxCell>
        <mxCell id="L-s-SFvwU7tH3ecKDvzv-44" value="Predicted drug sensitivity" style="text;html=1;align=left;verticalAlign=middle;whiteSpace=wrap;rounded=0;fontSize=8;fontStyle=1" vertex="1" parent="1">
          <mxGeometry x="10" y="640" width="90" height="30" as="geometry" />
        </mxCell>
        <mxCell id="L-s-SFvwU7tH3ecKDvzv-45" value="&lt;div&gt;TKI inhibitors&lt;/div&gt;" style="rounded=0;whiteSpace=wrap;html=1;fontSize=8;align=left;spacingLeft=4;fillColor=#f8cecc;strokeColor=#b85450;opacity=50;" vertex="1" parent="1">
          <mxGeometry x="400" y="630" width="140" height="50" as="geometry" />
        </mxCell>
        <mxCell id="L-s-SFvwU7tH3ecKDvzv-46" value="&lt;div&gt;cytotoxic drugs, TKI inhibitors&lt;/div&gt;" style="rounded=0;whiteSpace=wrap;html=1;fontSize=8;align=left;spacingLeft=4;fillColor=#dae8fc;strokeColor=#6c8ebf;opacity=50;" vertex="1" parent="1">
          <mxGeometry x="550" y="630" width="140" height="50" as="geometry" />
        </mxCell>
      </root>
    </mxGraphModel>
  </diagram>
</mxfile>
